<svg xmlns="http://www.w3.org/2000/svg" version="1.0" preserveAspectRatio="xMidYMid meet" viewBox="327.86 235.16 385.06 545.35">

<g transform="translate(0.000000,1024.000000) scale(0.100000,-0.100000)" fill="#000000" stroke="none">
<path d="M5025 7875 c-155 -25 -294 -70 -439 -142 -142 -71 -223 -130 -337 -243 -161 -159 -259 -323 -313 -522 -145 -536 75 -1056 517 -1223 139 -52 178 -55 714 -55 544 0 586 -4 686 -57 110 -59 217 -202 248 -333 17 -74 15 -201 -5 -277 -72 -274 -314 -506 -621 -595 -72 -21 -101 -23 -280 -23 -200 0 -200 0 -292 32 -173 61 -291 131 -411 247 -78 75 -178 205 -232 299 l-32 56 604 3 c597 3 603 3 643 25 52 28 110 88 130 135 31 75 13 156 -52 228 -82 91 1 85 -1087 88 -1064 3 -1024 5 -1103 -63 -108 -92 -113 -245 -11 -342 57 -55 110 -73 220 -73 85 0 100 -3 116 -20 10 -11 77 -109 147 -218 156 -239 214 -319 296 -406 317 -339 817 -510 1286 -440 326 48 604 190 823 420 157 165 267 381 305 602 21 120 19 306 -4 419 -61 292 -259 546 -526 674 -179 85 -147 82 -795 88 l-575 6 -58 27 c-122 57 -224 202 -247 352 -20 129 11 290 81 426 81 157 208 279 374 361 131 64 230 89 380 96 256 12 458 -41 655 -172 80 -53 199 -168 259 -249 46 -61 111 -167 111 -178 0 -5 -253 -8 -562 -8 l-563 0 -50 -24 c-62 -28 -131 -104 -146 -160 -31 -115 40 -240 160 -281 66 -22 1856 -23 1921 0 63 22 116 69 146 131 44 90 25 182 -53 260 -48 48 -106 74 -169 74 -28 0 -72 3 -97 6 l-47 7 -115 182 c-202 320 -333 474 -510 600 -184 131 -443 231 -688 264 -103 14 -301 12 -402 -4z"/>
<path d="M5590 3309 c-65 -11 -159 -55 -214 -101 -53 -43 -112 -138 -136 -216 -86 -278 126 -554 425 -555 148 0 270 60 342 169 32 49 38 66 41 124 5 83 -10 131 -49 165 -29 24 -36 25 -163 25 -126 0 -134 -1 -154 -23 -32 -34 -30 -100 3 -132 20 -21 34 -25 85 -25 57 0 60 -1 60 -24 0 -52 -117 -107 -192 -91 -125 27 -222 159 -204 280 12 76 78 162 151 196 76 35 159 21 233 -38 29 -24 48 -32 62 -28 26 8 110 103 110 124 0 23 -65 84 -119 111 -46 23 -159 50 -201 49 -14 -1 -50 -5 -80 -10z"/>
<path d="M6604 3306 c-40 -18 -64 -53 -118 -168 -24 -51 -100 -207 -170 -347 -69 -140 -126 -263 -126 -274 0 -10 13 -32 29 -48 24 -23 38 -29 74 -29 57 0 86 23 122 95 l27 55 201 -2 202 -3 32 -59 c39 -75 54 -86 116 -86 40 0 53 5 78 29 16 16 29 38 29 49 0 17 -158 348 -312 651 -68 134 -114 168 -184 137z m94 -411 c29 -63 52 -118 52 -123 0 -4 -39 -6 -87 -4 -147 5 -137 -10 -79 125 28 64 53 117 56 117 3 0 29 -52 58 -115z"/>
<path d="M3548 3286 c-65 -27 -106 -57 -138 -103 -93 -133 -50 -287 100 -363 31 -16 100 -41 151 -55 98 -28 129 -46 129 -76 0 -21 -43 -57 -78 -66 -41 -10 -129 16 -177 53 -25 19 -51 34 -58 34 -7 0 -39 -26 -70 -58 -54 -54 -57 -61 -47 -84 7 -14 37 -41 68 -62 154 -101 369 -94 490 18 58 53 82 105 82 179 0 127 -68 192 -265 252 -108 33 -141 49 -155 75 -15 28 3 58 45 76 62 25 135 11 190 -37 21 -19 43 -29 56 -27 12 2 44 29 72 60 48 56 49 58 33 82 -23 35 -97 84 -163 107 -80 27 -191 26 -265 -5z"/>
<path d="M4563 3278 c-47 -50 -385 -745 -378 -778 9 -40 41 -60 95 -60 61 0 95 26 126 97 l24 53 205 0 205 0 26 -52 c42 -84 59 -98 119 -98 59 0 99 23 109 63 4 18 -40 115 -178 388 -101 200 -195 376 -209 392 -20 22 -33 27 -69 27 -37 0 -49 -5 -75 -32z m187 -508 c0 -3 -49 -5 -110 -5 -75 0 -110 4 -110 11 0 10 84 205 98 229 5 8 122 -218 122 -235z"/>
</g>
</svg>